<svg id="Capa_1" enable-background="new 0 0 512 512" height="512" viewBox="0 0 512 512" width="512" xmlns="http://www.w3.org/2000/svg"><g><g clip-rule="evenodd" fill-rule="evenodd"><path d="m76.142 53.548h269.292c5.357 0 9.723 4.365 9.723 9.723v402.58c0 5.357-4.365 9.723-9.723 9.723h-269.292c-5.357 0-9.751-4.365-9.751-9.723v-402.58c0-5.358 4.393-9.723 9.751-9.723z" fill="#ecf4ff"/><path d="m321.169 53.548h24.265c5.357 0 9.723 4.365 9.723 9.723v402.58c0 5.357-4.365 9.723-9.723 9.723h-24.265c5.357 0 9.723-4.365 9.723-9.723v-402.58c0-5.358-4.366-9.723-9.723-9.723z" fill="#ddeafb"/><path d="m272.441 432.061c-.199-23.839 4.252-48.274 25.483-69.109 18.113-17.745 13.634-39.09 10.573-53.404-.992-4.565-5.925-5.159-7.938-4.451l-30.529 10.744c-3.798 1.332-7.229.113-8.646-4.281l-11.111-34.385c-1.531-4.733-.992-7.71 2.749-11.48l51.987-52.413-7.37-32.344c-.765-3.373 2.211-6.746 5.868-6.605 20.211.709 76.11 4.988 106.951 30.416 38.126 31.465 18.453 114.635 1.616 148.566-16.838 33.902-3.572 60.832 2.494 78.747l-71.972 21.827z" fill="#477b9e"/><path d="m272.441 432.061h143.801c15.449 0 28.092 12.643 28.092 28.092v35.066c-.907 5.102-4.933 9.155-10.064 10.063h-179.885c-5.103-.908-9.156-4.961-10.064-10.063v-35.066c0-15.449 12.643-28.092 28.12-28.092z" fill="#365e7d"/><path d="m154.01 30.897h17.064c0-12.443 10.176-22.62 22.62-22.62h34.157c12.444 0 22.649 10.177 22.649 22.62h17.064c12.444 0 22.62 10.206 22.62 22.65 0 12.444-10.176 22.62-22.62 22.62h-113.554c-12.473 0-22.649-10.176-22.649-22.62-.001-12.443 10.176-22.65 22.649-22.65z" fill="#ffe5a0"/><path d="m420.069 460.153v35.066c-.907 5.102-4.933 9.155-10.063 10.063h24.265c5.131-.908 9.156-4.961 10.064-10.063v-35.066c0-15.449-12.643-28.092-28.092-28.092h-1.672-22.592c4.535 0 8.815 1.077 12.642 3.005.312.17.596.34.907.51 8.673 4.791 14.541 14.032 14.541 24.577z" fill="#294b64"/><path d="m387.811 353.315c-16.837 33.902-3.571 60.832 2.495 78.747h1.673 22.592c-6.066-17.915-19.332-44.845-2.494-78.747 16.837-33.931 36.51-117.101-1.616-148.566-14.882-12.246-35.575-19.616-55.304-24.01-21.147-4.734-41.188-6.038-51.647-6.406-1.53-.057-2.92.482-3.997 1.389 16.016 1.673 36.709 5.074 55.645 12.047 11.451 4.225 22.252 9.752 31.039 16.98 38.124 31.465 18.451 114.635 1.614 148.566z" fill="#365e7d"/><path d="m134.904 41.415c-2.239 3.516-3.544 7.683-3.544 12.133 0 12.444 10.177 22.62 22.649 22.62h113.556c12.444 0 22.62-10.176 22.62-22.62 0-4.45-1.304-8.617-3.543-12.133-4.025 6.293-11.084 10.488-19.077 10.488h-113.555c-7.994 0-15.053-4.195-19.106-10.488z" fill="#f2ce7e"/></g><path d="m423.386 241.146c-.85-4.054 1.729-8.023 5.783-8.873 4.053-.85 8.021 1.758 8.844 5.783 3.685 17.604 2.977 37.615-.057 56.664-3.827 24.067-11.424 46.802-18.539 61.145-12.047 24.293-7.597 44.108 1.106 68.118 8.333.851 15.845 4.62 21.486 10.261 6.463 6.463 10.459 15.393 10.459 25.172v45.101c0 4.139-3.373 7.512-7.512 7.483h-200.011c-4.139 0-7.484-3.374-7.484-7.512v-22.167h-160.695c-9.468 0-17.234-7.796-17.234-17.265v-184.282c0-4.138 3.373-7.483 7.512-7.483s7.483 3.373 7.483 7.512v184.283c0 1.275.992 2.238 2.239 2.238h160.695v-7.965c0-9.751 4.025-18.652 10.46-25.087 4.791-4.79 10.914-8.22 17.745-9.694.312-10.432 1.701-20.92 4.989-31.237 4.082-12.785 11.083-25.145 22.648-36.483 14.57-14.258 11.594-32.286 8.845-44.929l-35.547 12.501c-4.082 1.445-8.532-.879-9.666-5.046l-15.279-47.283c-.906-2.862-.027-5.867 2.041-7.767l53.745-54.171-7.993-35.094c-1.105-4.762 2.579-9.099 7.398-9.127 2.154 0 24.831-.028 51.448 4.904v-108.341c0-1.275-.992-2.239-2.239-2.239h-48.671c-1.389 5.273-4.167 10.006-7.908 13.776-5.472 5.471-13.012 8.845-21.288 8.845h-39.799c-4.139 0-7.483-3.346-7.483-7.484 0-4.139 3.373-7.512 7.512-7.483h39.458c4.422-.198 7.796-1.219 11.027-4.45 5.896-5.896 5.924-15.477 0-21.401-3.203-3.203-6.605-4.252-10.999-4.45h-16.81c-4.139 0-7.483-3.347-7.455-7.484 0-4.195-1.7-7.966-4.45-10.686-2.721-2.75-6.52-4.451-10.715-4.451h-34.157c-4.167 0-7.938 1.701-10.687 4.422-2.722 2.75-4.423 6.549-4.423 10.716-.027 4.167-3.373 7.513-7.512 7.484h-17.093c-4.167 0-7.936 1.7-10.686 4.45-5.896 5.895-5.924 15.477 0 21.401 3.203 3.203 6.605 4.252 10.999 4.45h39.515c4.139 0 7.483 3.374 7.483 7.513 0 4.138-3.373 7.482-7.512 7.455h-39.799c-8.249 0-15.761-3.374-21.232-8.845-3.77-3.771-6.548-8.504-7.908-13.776h-48.386c-1.786.085-2.494.737-2.551 2.524v184.026c0 4.139-3.374 7.483-7.512 7.483-4.139 0-7.483-3.373-7.483-7.512v-184.312c0-4.705 1.955-8.985 5.073-12.132 3.118-3.118 7.427-5.074 12.161-5.074h48.699c1.36-5.272 4.139-10.008 7.88-13.777 5.471-5.471 13.011-8.844 21.288-8.844h10.517c1.39-5.301 4.167-10.007 7.909-13.776 5.471-5.473 13.011-8.874 21.289-8.874h34.157c8.249 0 15.789 3.401 21.232 8.873 3.77 3.741 6.548 8.476 7.938 13.776h10.545c8.248 0 15.788 3.373 21.231 8.844 3.77 3.769 6.548 8.505 7.908 13.777h48.728c4.706 0 9.015 1.956 12.133 5.074s5.073 7.455 5.073 12.16v111.602c18.879 4.733 38.184 12.245 52.583 24.123 2.183 1.813 4.195 3.741 6.095 5.867 2.777 3.09 2.494 7.823-.567 10.574-3.09 2.778-7.823 2.523-10.573-.567-1.389-1.531-2.92-3.034-4.507-4.338-24.661-20.352-68.854-27.354-100.177-28.658l5.642 24.747c9.44 1.53 19.587 3.883 29.225 7.427 9.439 3.487 18.426 8.107 25.824 14.202 10.347 8.532 16.44 20.665 19.502 34.327 3.458 15.562 2.948 33.279.311 49.806-.651 4.082-4.478 6.86-8.56 6.208-4.053-.651-6.831-4.507-6.18-8.56 2.354-14.826 2.835-30.587-.198-44.193-2.353-10.629-6.888-19.842-14.4-26.05-6.01-4.961-13.493-8.787-21.43-11.707-9.015-3.288-18.624-5.471-27.582-6.86l-50.995 51.393 11.594 35.916 36.17-12.757c4.393-1.531 9.213 1.02 10.007 5.755.283 1.503.709 3.544 1.219 5.755 3.486 15.874 8.815 40.109-12.473 61.001-9.666 9.496-15.505 19.758-18.907 30.36-2.692 8.447-3.911 17.178-4.252 25.909h123.931c-6.633-18.596-13.89-43.684 1.418-74.581 6.576-13.238 13.605-34.355 17.206-56.836 2.747-17.434 3.428-35.547.168-51.223zm-299.14 39.26c-2.92-2.92-2.948-7.653-.028-10.573 2.919-2.92 7.653-2.92 10.573 0l3.94 3.94 13.125-13.153c2.92-2.919 7.653-2.919 10.573 0 2.919 2.892 2.919 7.626 0 10.545l-18.426 18.426c-2.919 2.919-7.625 2.948-10.545.028zm0-120.332c-2.92-2.919-2.948-7.653-.028-10.573 2.919-2.919 7.653-2.919 10.573-.028l3.94 3.94 13.125-13.124c2.92-2.92 7.653-2.92 10.573-.028 2.919 2.92 2.919 7.653 0 10.573l-18.426 18.425c-2.919 2.92-7.625 2.92-10.545.028zm-22.167 186.636h82.517c4.139 0 7.483 3.345 7.483 7.483v82.518c0 4.139-3.374 7.512-7.512 7.483h-82.517c-4.139 0-7.483-3.345-7.483-7.483v-82.518c.029-4.138 3.373-7.511 7.512-7.483zm75.005 14.967h-67.522v67.551h67.522zm-75.005-135.327h82.517c4.139.028 7.483 3.373 7.483 7.512v82.518c0 4.139-3.374 7.483-7.512 7.483h-82.517c-4.139 0-7.483-3.373-7.483-7.512v-82.518c.029-4.139 3.373-7.483 7.512-7.483zm75.005 14.995h-67.522v67.522h67.522zm-75.005-135.328h82.517c4.139 0 7.483 3.374 7.483 7.513v82.517c0 4.139-3.374 7.484-7.512 7.484h-82.517c-4.139 0-7.483-3.374-7.483-7.513v-82.518c.029-4.139 3.373-7.483 7.512-7.483zm75.005 14.995h-67.522v67.522h67.522zm239.782 317.768h-143.489c-5.953.255-10.574 1.728-14.883 6.037-4.28 4.28-5.811 8.93-6.037 14.882v37.333h185.018v-37.645c0-5.669-2.297-10.828-6.038-14.57-3.714-3.713-8.873-6.037-14.571-6.037z"/></g></svg>