<svg id="Capa_1" enable-background="new 0 0 512 512" height="512" viewBox="0 0 512 512" width="512" xmlns="http://www.w3.org/2000/svg"><g><g><path d="m403.484 504.5h-294.968c-16.737 0-30.305-13.568-30.305-30.305v-385.882h355.577v385.882c.001 16.737-13.567 30.305-30.304 30.305z" fill="#f4fbff"/></g><g><path d="m399.443 88.313v385.882c0 16.737-13.568 30.305-30.305 30.305h34.346c16.737 0 30.305-13.568 30.305-30.305v-385.882z" fill="#ddeafb"/></g><g><path d="m403.484 7.5h-294.968c-16.737 0-30.305 13.568-30.305 30.305v50.508h355.577v-50.508c.001-16.737-13.567-30.305-30.304-30.305z" fill="#5766cb"/></g><g><path d="m403.484 7.5h-34.346c16.737 0 30.305 13.568 30.305 30.305v50.508h34.346v-50.508c0-16.737-13.568-30.305-30.305-30.305z" fill="#3d4fc3"/></g><g><g><path d="m212.538 147.673-56.128 89.537c-21.374 34.097 3.136 78.389 43.378 78.389h112.256c40.243 0 64.753-44.292 43.378-78.389l-56.128-89.537c-20.063-32.006-66.693-32.006-86.756 0z" fill="#e28086"/></g><g><path d="m355.422 237.21-39.873-63.607c1.179 7.053 1.803 14.295 1.803 21.683 0 54.095-32.901 100.505-79.784 120.313h74.476c40.242.001 64.753-44.292 43.378-78.389z" fill="#dd636e"/></g><g><path d="m281.397 233.776 9.749-9.749c7.014-7.013 7.014-18.384 0-25.398-7.013-7.013-18.384-7.013-25.397 0l-9.75 9.75-9.75-9.75c-7.013-7.013-18.384-7.013-25.397 0-7.014 7.013-7.014 18.384 0 25.398l9.749 9.749-9.749 9.749c-7.014 7.013-7.014 18.384 0 25.398 3.506 3.506 8.102 5.26 12.698 5.26s9.192-1.753 12.698-5.26l9.75-9.75 9.75 9.75c3.506 3.506 8.102 5.26 12.698 5.26s9.192-1.753 12.698-5.26c7.014-7.013 7.014-18.384 0-25.398z" fill="#f4fbff"/></g></g><g><path d="m378.18 366.356c-.536-6.434-4.291-11.647-9.567-13.281-2.487-.771-8.93-1.753-15.023 5.722-5.629 6.906-33.884 57.954-39.491 68.117-1.281 2.323-1.24 5.151.109 7.436s3.805 3.687 6.458 3.687h42.462c-.055 7.782-.114 15.287-.172 21.952-.035 4.142 3.293 7.528 7.436 7.564h.065c4.112 0 7.463-3.315 7.499-7.436.022-2.609.095-11.143.173-22.081h5.338c4.143 0 7.5-3.358 7.5-7.5s-3.357-7.5-7.5-7.5h-5.238c.15-24.73.25-53.076-.049-56.68zm-14.954 56.681h-29.827c10.907-19.585 24.475-43.507 29.926-52.014.109 8.384.034 29.87-.099 52.014z"/><path d="m122.625 434.35c1.349 2.285 3.805 3.687 6.458 3.687h42.462c-.055 7.783-.114 15.286-.171 21.952-.036 4.142 3.293 7.528 7.435 7.564h.066c4.111 0 7.463-3.315 7.498-7.436.023-2.609.095-11.143.173-22.081h5.337c4.142 0 7.5-3.358 7.5-7.5s-3.358-7.5-7.5-7.5h-5.238c.151-24.73.252-53.076-.048-56.681-.536-6.434-4.292-11.647-9.568-13.281-2.486-.77-8.929-1.754-15.022 5.722-5.629 6.906-33.884 57.954-39.491 68.117-1.282 2.324-1.241 5.152.109 7.437zm49.117-63.328c.109 8.384.035 29.871-.099 52.014h-29.827c10.908-19.584 24.475-43.506 29.926-52.014z"/><path d="m220.673 387.832v44.436c0 19.456 15.829 35.285 35.285 35.285 19.457 0 35.286-15.829 35.286-35.285v-44.436c0-19.456-15.829-35.285-35.286-35.285-19.456 0-35.285 15.829-35.285 35.285zm55.571 0v44.436c0 11.185-9.1 20.285-20.286 20.285-11.185 0-20.285-9.1-20.285-20.285v-44.436c0-11.185 9.1-20.285 20.285-20.285 11.187 0 20.286 9.1 20.286 20.285z"/><path d="m305.648 143.689c-10.803-17.232-29.395-27.521-49.733-27.521s-38.93 10.288-49.732 27.521l-56.128 89.538c-11.509 18.358-12.116 40.637-1.625 59.596 10.491 18.958 29.69 30.277 51.358 30.277h112.256c21.668 0 40.867-11.319 51.358-30.277 10.49-18.958 9.883-41.237-1.626-59.595zm44.629 141.871c-7.811 14.114-22.103 22.54-38.233 22.54h-112.256c-16.13 0-30.423-8.426-38.233-22.54s-7.358-30.699 1.209-44.366l56.128-89.538c8.042-12.829 21.883-20.487 37.023-20.487 15.141 0 28.982 7.659 37.024 20.487l56.128 89.538c8.568 13.667 9.02 30.252 1.21 44.366z"/><path d="m303.906 211.329c0-6.8-2.647-13.194-7.456-18.002s-11.202-7.457-18.002-7.457-13.193 2.648-18.002 7.457l-4.446 4.445-4.447-4.446c-4.808-4.808-11.201-7.457-18.001-7.457s-13.193 2.648-18.001 7.456c-4.809 4.809-7.458 11.202-7.458 18.003 0 6.8 2.648 13.193 7.458 18.002l4.446 4.446-4.445 4.446c-4.81 4.809-7.458 11.202-7.458 18.002s2.648 13.194 7.458 18.002c4.808 4.809 11.201 7.457 18.001 7.457s13.193-2.648 18.001-7.457l4.446-4.446 4.447 4.447c4.809 4.808 11.201 7.456 18.001 7.456 6.801 0 13.194-2.648 18.001-7.456 4.81-4.809 7.457-11.202 7.457-18.002s-2.647-13.194-7.456-18.002l-4.446-4.446 4.446-4.446c4.809-4.809 7.456-11.203 7.456-18.002zm-18.063 52.292c-1.975 1.975-4.601 3.062-7.395 3.062-2.793 0-5.42-1.088-7.395-3.063l-9.75-9.75c-1.406-1.407-3.314-2.197-5.303-2.197s-3.897.79-5.303 2.197l-9.75 9.75c-1.975 1.975-4.602 3.063-7.395 3.063s-5.42-1.088-7.396-3.063-3.063-4.602-3.063-7.395 1.088-5.42 3.064-7.396l9.749-9.75c2.929-2.929 2.929-7.678 0-10.606l-9.749-9.75c-1.976-1.975-3.064-4.602-3.064-7.395 0-2.794 1.088-5.42 3.064-7.396 4.078-4.077 10.712-4.077 14.79 0l9.75 9.75c1.406 1.407 3.314 2.197 5.303 2.197s3.897-.79 5.303-2.197l9.75-9.75c4.076-4.077 10.713-4.077 14.789 0 4.078 4.078 4.078 10.713 0 14.792l-9.749 9.749c-2.929 2.929-2.929 7.677 0 10.606l9.75 9.75c1.975 1.975 3.062 4.602 3.062 7.395s-1.087 5.421-3.062 7.397z"/><path d="m403.48 0h-187.89c-4.142 0-7.5 3.358-7.5 7.5s3.358 7.5 7.5 7.5h187.89c12.577 0 22.81 10.228 22.81 22.8v43.013h-340.58v-43.013c0-12.572 10.232-22.8 22.81-22.8h72.07c4.142 0 7.5-3.358 7.5-7.5s-3.358-7.5-7.5-7.5h-72.07c-20.849 0-37.81 16.957-37.81 37.8v318.25c0 4.142 3.358 7.5 7.5 7.5s7.5-3.358 7.5-7.5v-260.237h340.58v48.477c0 4.142 3.357 7.5 7.5 7.5s7.5-3.358 7.5-7.5v-106.49c0-20.843-16.961-37.8-37.81-37.8z"/><path d="m433.79 171.79c-4.143 0-7.5 3.358-7.5 7.5v294.91c0 12.572-10.232 22.8-22.81 22.8h-294.96c-12.578 0-22.81-10.228-22.81-22.8v-83.15c0-4.142-3.358-7.5-7.5-7.5s-7.5 3.358-7.5 7.5v83.15c0 20.843 16.961 37.8 37.81 37.8h294.96c20.849 0 37.81-16.957 37.81-37.8v-294.91c0-4.142-3.357-7.5-7.5-7.5z"/><ellipse cx="385.301" cy="47.906" rx="13.132" ry="13.132" transform="matrix(.987 -.16 .16 .987 -2.699 62.337)"/><ellipse cx="340.854" cy="47.906" rx="13.132" ry="13.132" transform="matrix(.924 -.383 .383 .924 7.613 134.085)"/><ellipse cx="296.407" cy="47.906" rx="13.132" ry="13.132" transform="matrix(.973 -.23 .23 .973 -3.078 69.382)"/></g></g></svg>